<svg width="566" height="317" viewBox="0 0 566 317" fill="none" xmlns="http://www.w3.org/2000/svg">
<path d="M7.40582 206.478L282.242 47.7881L928.568 419.409L655.827 579.315L586.119 539.809L71.7072 243.515L7.40582 206.478Z" fill="black"/>
<path d="M655.827 907.846L586.119 867.064V539.809L655.827 579.315V907.846Z" fill="black"/>
<path d="M928.568 749.74L655.827 907.846V579.315L928.568 419.409V673.133V749.74Z" fill="black"/>
<path d="M386.229 550.06C443.603 572.58 511.925 574.377 586.119 539.809V867.064C511.925 901.631 443.603 899.835 386.229 877.315V550.06Z" fill="black"/>
<path d="M586.119 539.809C511.925 574.377 443.603 572.58 386.229 550.06L71.7072 372.971L60.817 366.839C41.1562 351.064 31.5872 334.071 30.3035 316.863C28.4368 291.839 44.0898 266.361 71.7072 243.515L586.119 539.809Z" fill="black"/>
<path d="M71.7072 372.971V700.225L60.817 694.094C38.0748 675.847 28.8358 655.969 30.3035 636.014V546.546V316.863C31.5872 334.071 41.1562 351.064 60.817 366.839L71.7072 372.971Z" fill="black"/>
<path d="M71.7072 372.971L386.229 550.06V877.315L71.7072 700.225V372.971Z" fill="black"/>
<path d="M7.40582 206.478L71.7072 243.515C44.0898 266.361 28.4368 291.839 30.3035 316.863V546.546L2.00006 529.987L7.40582 206.478Z" fill="black"/>
<path d="M655.827 907.846L656.729 909.404C656.169 909.729 655.477 909.727 654.918 909.4L655.827 907.846ZM928.568 749.74H930.368C930.368 750.381 930.026 750.975 929.471 751.297L928.568 749.74ZM282.242 47.7881L281.342 46.2293C281.898 45.9083 282.583 45.9077 283.139 46.2276L282.242 47.7881ZM7.40582 206.478L5.60608 206.448C5.61664 205.816 5.95819 205.236 6.50574 204.92L7.40582 206.478ZM60.817 366.839L59.9338 368.407C59.8484 368.359 59.767 368.304 59.6905 368.243L60.817 366.839ZM928.568 419.409L929.466 417.848C930.024 418.169 930.368 418.765 930.368 419.409H928.568ZM60.817 694.094L59.9338 695.662C59.8484 695.614 59.767 695.559 59.6905 695.497L60.817 694.094ZM386.229 877.315L385.572 878.99C385.494 878.96 385.419 878.924 385.346 878.883L386.229 877.315ZM2.00006 529.987L1.09106 531.541C0.529968 531.212 0.189453 530.607 0.200317 529.957L2.00006 529.987ZM71.7072 372.971L72.5903 371.402L71.7072 372.971ZM71.7072 700.225L70.8241 701.794L71.7072 700.225ZM30.3035 636.014H32.1035C32.1035 636.058 32.1019 636.102 32.0987 636.146L30.3035 636.014ZM587.028 865.51L656.736 906.293L654.918 909.4L585.21 868.617L587.028 865.51ZM654.924 906.289L927.666 748.182L929.471 751.297L656.729 909.404L654.924 906.289ZM926.768 749.74V673.133H930.368V749.74H926.768ZM283.142 49.3469L8.30591 208.037L6.50574 204.92L281.342 46.2293L283.142 49.3469ZM8.3042 204.919L72.6056 241.955L70.8088 245.075L6.50745 208.038L8.3042 204.919ZM386.887 548.385C443.801 570.724 511.611 572.538 585.359 538.177L586.88 541.441C512.24 576.216 443.406 574.436 385.572 551.736L386.887 548.385ZM587.007 538.243L656.714 577.749L654.939 580.881L585.232 541.375L587.007 538.243ZM587.919 539.809V867.064H584.319V539.809H587.919ZM657.627 579.315V907.846H654.027V579.315H657.627ZM930.368 419.409V673.133H926.768V419.409H930.368ZM585.221 541.369L70.8088 245.075L72.6056 241.955L587.018 538.249L585.221 541.369ZM654.916 577.762L927.658 417.856L929.479 420.962L656.737 580.868L654.916 577.762ZM927.671 420.969L281.345 49.3485L283.139 46.2276L929.466 417.848L927.671 420.969ZM386.887 875.639C443.801 897.979 511.611 899.792 585.359 865.432L586.88 868.695C512.24 903.47 443.406 901.691 385.572 878.99L386.887 875.639ZM0.200317 529.957L5.60608 206.448L9.20557 206.509L3.7998 530.017L0.200317 529.957ZM72.5903 371.402L387.112 548.492L385.346 551.629L70.8241 374.539L72.5903 371.402ZM70.8241 374.539L59.9338 368.407L61.7001 365.27L72.5903 371.402L70.8241 374.539ZM385.346 878.883L70.8241 701.794L72.5903 698.657L387.112 875.746L385.346 878.883ZM70.8241 701.794L59.9338 695.662L61.7001 692.525L72.5903 698.657L70.8241 701.794ZM32.0987 636.146C30.6858 655.355 39.5271 674.704 61.9434 692.69L59.6905 695.497C36.6226 676.989 26.9857 656.583 28.5084 635.882L32.0987 636.146ZM72.8546 244.902C45.4061 267.608 30.2966 292.574 32.0985 316.729L28.5085 316.997C26.577 291.104 42.7735 265.113 70.5599 242.128L72.8546 244.902ZM32.0985 316.729C33.3351 333.306 42.5531 349.878 61.9434 365.435L59.6905 368.243C39.7592 352.251 29.8394 334.837 28.5085 316.997L32.0985 316.729ZM28.5035 636.014V546.546H32.1035V636.014H28.5035ZM28.5035 546.546V316.863H32.1035V546.546H28.5035ZM2.90906 528.433L31.2125 544.993L29.3945 548.1L1.09106 531.541L2.90906 528.433ZM69.9072 700.225V372.971H73.5072V700.225H69.9072ZM384.429 877.315V550.06H388.029V877.315H384.429Z" fill="white"/>
<path d="M366.508 182.617L492.613 350.687L170.887 162.293L366.508 182.617Z" fill="black"/>
<path d="M492.613 350.687V486.488L170.887 299.869V162.293L492.613 350.687Z" fill="black"/>
<path d="M366.508 182.617L492.613 350.687L170.887 162.293L366.508 182.617Z" fill="black"/>
<path d="M492.613 350.687V486.488L170.887 299.869V162.293L492.613 350.687Z" fill="black"/>
<path d="M492.613 486.488V350.687L648.922 259.045L765.355 190.781L765.355 326.582L698.967 364.883L492.613 486.488Z" fill="black"/>
<path d="M492.613 350.687L366.508 182.617L441.433 138.689L639.25 22.711L765.355 190.781L648.922 259.045L492.613 350.687Z" fill="black"/>
<path d="M439.902 2L639.25 22.711L441.433 138.689L366.508 182.617L170.887 162.293L439.902 2Z" fill="black"/>
<path d="M492.613 486.488L493.527 488.039C492.967 488.369 492.273 488.371 491.71 488.045L492.613 486.488ZM698.967 364.883L698.053 363.333C698.058 363.33 698.062 363.327 698.067 363.324L698.967 364.883ZM765.355 326.582H767.155C767.155 327.226 766.812 327.82 766.255 328.141L765.355 326.582ZM441.433 138.689L442.343 140.242L441.433 138.689ZM765.355 190.781L766.795 189.701C767.029 190.012 767.155 190.391 767.155 190.781H765.355ZM439.902 2L438.98 0.453691C439.313 0.255157 439.702 0.169556 440.088 0.209637L439.902 2ZM639.25 22.711L639.436 20.9206C639.935 20.9724 640.389 21.2298 640.69 21.6307L639.25 22.711ZM170.887 162.293H169.087C169.087 161.659 169.421 161.072 169.965 160.747L170.887 162.293ZM170.887 299.869L169.984 301.426C169.429 301.104 169.087 300.511 169.087 299.869H170.887ZM648.922 259.045L649.833 260.597L648.922 259.045ZM490.813 486.488V350.687H494.413V486.488H490.813ZM491.174 351.767L365.068 183.697L367.948 181.537L494.053 349.607L491.174 351.767ZM491.7 484.938L698.053 363.333L699.88 366.434L493.527 488.039L491.7 484.938ZM698.067 363.324L764.456 325.023L766.255 328.141L699.866 366.443L698.067 363.324ZM763.555 326.582L763.555 190.781H767.155L767.155 326.582H763.555ZM763.916 191.861L637.81 23.7913L640.69 21.6307L766.795 189.701L763.916 191.861ZM639.064 24.5014L439.716 3.79036L440.088 0.209637L639.436 20.9206L639.064 24.5014ZM366.322 184.407L170.701 164.084L171.073 160.503L366.694 180.827L366.322 184.407ZM169.965 160.747L438.98 0.453691L440.823 3.54631L171.808 163.84L169.965 160.747ZM442.343 140.242L367.418 184.17L365.598 181.064L440.522 137.137L442.343 140.242ZM440.522 137.137L638.34 21.1582L640.16 24.2638L442.343 140.242L440.522 137.137ZM491.71 488.045L169.984 301.426L171.79 298.312L493.517 484.931L491.71 488.045ZM172.687 162.293V299.869H169.087V162.293H172.687ZM171.796 160.74L493.523 349.134L491.704 352.24L169.977 163.847L171.796 160.74ZM649.833 260.597L493.524 352.24L491.703 349.134L648.012 257.492L649.833 260.597ZM648.012 257.492L764.445 189.228L766.266 192.334L649.833 260.597L648.012 257.492Z" fill="white"/>
</svg>
