<svg width="190" height="81" viewBox="0 0 190 81" fill="none" xmlns="http://www.w3.org/2000/svg">
<path d="M94.0019 78.8076C132.733 78.8076 164.858 77.3917 177.262 76.7601C179.155 76.6637 180.102 76.6155 180.989 76.2129C181.752 75.8666 182.545 75.2158 183.035 74.5354C183.603 73.7444 183.822 72.8814 184.259 71.1555C185.879 64.7609 188.23 53.2505 188.23 40.3196C188.23 27.3886 185.879 15.8783 184.259 9.48369C183.822 7.75774 183.603 6.89477 183.035 6.1038C182.545 5.42339 181.752 4.77259 180.989 4.42625C180.102 4.02365 179.155 3.97546 177.262 3.87907C164.858 3.24745 132.733 1.83157 94.0019 1.83157C55.5699 1.83157 25.0872 3.22568 13.1395 3.86431C11.2642 3.96455 10.3266 4.01467 9.44212 4.41792C8.68225 4.76438 7.88951 5.41594 7.40245 6.09434C6.83559 6.8839 6.61778 7.74298 6.18224 9.46108L6.18219 9.4612C4.56219 15.8512 2.20502 27.3735 2.20502 40.3196C2.20502 53.2657 4.56219 64.7879 6.18219 71.178L6.18224 71.1781C6.61778 72.8962 6.83559 73.7553 7.40245 74.5448C7.88951 75.2232 8.68225 75.8748 9.44212 76.2213C10.3266 76.6245 11.2642 76.6746 13.1395 76.7749C25.0872 77.4135 55.5699 78.8076 94.0019 78.8076Z" stroke="white" stroke-width="2.56587"/>
</svg>
