<svg width="412" height="271" viewBox="0 0 412 271" fill="none" xmlns="http://www.w3.org/2000/svg">
<path d="M442.075 135.5C442.075 172.441 415.767 206.066 372.834 230.509C329.928 254.937 270.591 270.075 205 270.075C139.409 270.075 80.0723 254.937 37.166 230.509C-5.76705 206.066 -32.0754 172.441 -32.0754 135.5C-32.0754 98.5594 -5.76705 64.9335 37.166 40.4905C80.0723 16.0628 139.409 0.92459 205 0.92459C270.591 0.92459 329.928 16.0628 372.834 40.4905C415.767 64.9335 442.075 98.5594 442.075 135.5Z" fill="black"/>
<path d="M442.075 135.5C442.075 172.441 415.767 206.066 372.834 230.509C329.928 254.937 270.591 270.075 205 270.075C139.409 270.075 80.0723 254.937 37.166 230.509C-5.76705 206.066 -32.0754 172.441 -32.0754 135.5C-32.0754 98.5594 -5.76705 64.9335 37.166 40.4905C80.0723 16.0628 139.409 0.92459 205 0.92459C270.591 0.92459 329.928 16.0628 372.834 40.4905C415.767 64.9335 442.075 98.5594 442.075 135.5Z" fill="url(#paint0_linear)" fill-opacity="0.35"/>
<path d="M442.075 135.5C442.075 172.441 415.767 206.066 372.834 230.509C329.928 254.937 270.591 270.075 205 270.075C139.409 270.075 80.0723 254.937 37.166 230.509C-5.76705 206.066 -32.0754 172.441 -32.0754 135.5C-32.0754 98.5594 -5.76705 64.9335 37.166 40.4905C80.0723 16.0628 139.409 0.92459 205 0.92459C270.591 0.92459 329.928 16.0628 372.834 40.4905C415.767 64.9335 442.075 98.5594 442.075 135.5Z" stroke="url(#paint1_linear)" stroke-width="1.84918"/>
<defs>
<linearGradient id="paint0_linear" x1="426.023" y1="8.31177" x2="212.738" y2="354.229" gradientUnits="userSpaceOnUse">
<stop stop-color="#090606"/>
<stop offset="1" stop-color="#312727"/>
</linearGradient>
<linearGradient id="paint1_linear" x1="205" y1="0" x2="205" y2="271" gradientUnits="userSpaceOnUse">
<stop stop-color="#1B1313"/>
<stop offset="1" stop-color="#241A1A"/>
</linearGradient>
</defs>
</svg>
