<svg width="1124" height="288" viewBox="0 0 1124 288" fill="none" xmlns="http://www.w3.org/2000/svg">
<path d="M1122.5 144C1122.5 163.043 1107.41 181.595 1079.06 198.768C1050.8 215.887 1009.81 231.358 959.022 244.37C857.473 270.39 717.104 286.5 562 286.5C406.896 286.5 266.527 270.39 164.978 244.37C114.193 231.358 73.2011 215.887 44.9419 198.768C16.5925 181.595 1.5 163.043 1.5 144C1.5 124.957 16.5925 106.405 44.9419 89.2317C73.2011 72.1125 114.193 56.6424 164.978 43.6297C266.527 17.6101 406.896 1.5 562 1.5C717.104 1.5 857.473 17.6101 959.022 43.6297C1009.81 56.6424 1050.8 72.1125 1079.06 89.2317C1107.41 106.405 1122.5 124.957 1122.5 144Z" fill="black"/>
<path d="M1122.5 144C1122.5 163.043 1107.41 181.595 1079.06 198.768C1050.8 215.887 1009.81 231.358 959.022 244.37C857.473 270.39 717.104 286.5 562 286.5C406.896 286.5 266.527 270.39 164.978 244.37C114.193 231.358 73.2011 215.887 44.9419 198.768C16.5925 181.595 1.5 163.043 1.5 144C1.5 124.957 16.5925 106.405 44.9419 89.2317C73.2011 72.1125 114.193 56.6424 164.978 43.6297C266.527 17.6101 406.896 1.5 562 1.5C717.104 1.5 857.473 17.6101 959.022 43.6297C1009.81 56.6424 1050.8 72.1125 1079.06 89.2317C1107.41 106.405 1122.5 124.957 1122.5 144Z" fill="url(#paint0_linear)" fill-opacity="0.35"/>
<path d="M1122.5 144C1122.5 163.043 1107.41 181.595 1079.06 198.768C1050.8 215.887 1009.81 231.358 959.022 244.37C857.473 270.39 717.104 286.5 562 286.5C406.896 286.5 266.527 270.39 164.978 244.37C114.193 231.358 73.2011 215.887 44.9419 198.768C16.5925 181.595 1.5 163.043 1.5 144C1.5 124.957 16.5925 106.405 44.9419 89.2317C73.2011 72.1125 114.193 56.6424 164.978 43.6297C266.527 17.6101 406.896 1.5 562 1.5C717.104 1.5 857.473 17.6101 959.022 43.6297C1009.81 56.6424 1050.8 72.1125 1079.06 89.2317C1107.41 106.405 1122.5 124.957 1122.5 144Z" stroke="url(#paint1_linear)" stroke-width="3"/>
<defs>
<linearGradient id="paint0_linear" x1="1083.91" y1="8.83318" x2="953.185" y2="479.93" gradientUnits="userSpaceOnUse">
<stop stop-color="#090606"/>
<stop offset="1" stop-color="#312727"/>
</linearGradient>
<linearGradient id="paint1_linear" x1="562" y1="0" x2="562" y2="288" gradientUnits="userSpaceOnUse">
<stop stop-color="#1B1313"/>
<stop offset="1" stop-color="#241A1A"/>
</linearGradient>
</defs>
</svg>
