<svg width="30" height="30" viewBox="0 0 30 30" fill="none" xmlns="http://www.w3.org/2000/svg">
<g filter="url(#filter0_i)">
<path d="M22.5 15L23.5462 16.4647C24.0193 16.1268 24.3 15.5813 24.3 15C24.3 14.4187 24.0193 13.8732 23.5462 13.5353L22.5 15ZM5.70377 24.7853C4.89483 25.3631 4.70747 26.4873 5.28528 27.2962C5.8631 28.1052 6.98729 28.2925 7.79623 27.7147L5.70377 24.7853ZM7.79623 2.28528C6.98729 1.70747 5.8631 1.89483 5.28528 2.70377C4.70746 3.51272 4.89483 4.63691 5.70377 5.21472L7.79623 2.28528ZM21.4538 13.5353L5.70377 24.7853L7.79623 27.7147L23.5462 16.4647L21.4538 13.5353ZM23.5462 13.5353L7.79623 2.28528L5.70377 5.21472L21.4538 16.4647L23.5462 13.5353Z" fill="white"/>
</g>
<defs>
<filter id="filter0_i" x="0" y="0" width="30" height="31.2" filterUnits="userSpaceOnUse" color-interpolation-filters="sRGB">
<feFlood flood-opacity="0" result="BackgroundImageFix"/>
<feBlend mode="normal" in="SourceGraphic" in2="BackgroundImageFix" result="shape"/>
<feColorMatrix in="SourceAlpha" type="matrix" values="0 0 0 0 0 0 0 0 0 0 0 0 0 0 0 0 0 0 127 0" result="hardAlpha"/>
<feOffset dy="1.2"/>
<feGaussianBlur stdDeviation="1.2"/>
<feComposite in2="hardAlpha" operator="arithmetic" k2="-1" k3="1"/>
<feColorMatrix type="matrix" values="0 0 0 0 0 0 0 0 0 0 0 0 0 0 0 0 0 0 0.15 0"/>
<feBlend mode="normal" in2="shape" result="effect1_innerShadow"/>
</filter>
</defs>
</svg>
